<svg xmlns="http://www.w3.org/2000/svg" xmlns:xlink="http://www.w3.org/1999/xlink" xmlns:lucid="lucid" width="1454.47" height="680.83"><g transform="translate(276.220503549174 -146.99999999999955)" lucid:page-tab-id="NRYzFL~MAFTM"><path d="M-1806.87 0h3677.74v1322.84h-3677.74z" fill="#fff"/><path d="M233.32 664a6 6 0 0 1 6-6h152.44a6 6 0 0 1 6 6v88a6 6 0 0 1-6 6H239.32a6 6 0 0 1-6-6z" stroke="#5e5e5e" stroke-width="2" fill="#fff"/><use xlink:href="#a" transform="matrix(1,0,0,1,238.31557895668766,663) translate(30.03086419753086 48.71527777777778)"/><path d="M233.2 523.77a8.77 8.77 0 0 1 5.75-8.05l71.15-26a16.4 16.4 0 0 1 11.27 0l70.76 26a8.48 8.48 0 0 1 5.56 8.05l-.75 58.9a6.08 6.08 0 0 1-6.08 6h-153a5.88 5.88 0 0 1-5.88-6z" stroke="#3a414a" stroke-width="2" fill="#fff"/><use xlink:href="#b" transform="matrix(1,0,0,1,231.8711343813164,487.6666666666665) translate(37.35185185185186 54.94444444444444)"/><use xlink:href="#c" transform="matrix(1,0,0,1,231.8711343813164,487.6666666666665) translate(113.83333333333333 54.94444444444444)"/><path d="M316.3 656h-1.96l-.06-15.9h1.95zm-.16-37.23h-1.95l-.08-18.7 1.95-.02z" stroke="#000" stroke-width=".05"/><path d="M316.3 657h-1.95v-1.02h1.94z"/><path stroke="#000" stroke-width=".05"/><path d="M325.97 608.46l-1.7.98-8.22-14.14.02 4.86h-1.95l-.02-4.85-8.13 14.2-1.7-.96 10.78-18.82z" stroke="#000" stroke-width=".05"/><use xlink:href="#d" transform="matrix(1,0,0,1,279.23445596382726,618.7742182012076) translate(0.005000000000002558 14.222222222222223)"/><path d="M234.64 353.44a8.77 8.77 0 0 1 5.76-8.06l71.15-26a16.4 16.4 0 0 1 11.26.02l70.77 25.98a8.48 8.48 0 0 1 5.56 8.06l-.74 58.9a6.08 6.08 0 0 1-6.08 6h-153a5.88 5.88 0 0 1-5.88-6z" stroke="#3a414a" stroke-width="2" fill="#fff"/><use xlink:href="#e" transform="matrix(1,0,0,1,233.31557895668774,317.33333333333303) translate(54.01851851851852 54.94444444444444)"/><use xlink:href="#f" transform="matrix(1,0,0,1,233.31557895668774,317.33333333333303) translate(97.16666666666666 54.94444444444444)"/><path d="M317.24 486.75h-1.95V470.4h1.94zm0-37.67h-1.95v-19.36h1.94z" stroke="#000" stroke-width=".05"/><path d="M317.24 487.8l-.28-.03-1.22-.04-.45.02v-1.03h1.94z"/><path stroke="#000" stroke-width=".05"/><path d="M327.1 438.17l-1.68.97-8.2-14.17v4.86h-1.94v-4.86l-8.18 14.17-1.68-.97 10.84-18.8z" stroke="#000" stroke-width=".05"/><use xlink:href="#g" transform="matrix(1,0,0,1,273.8649617382007,449.08010548718323) translate(0.005000000000002558 14.222222222222223)"/><use xlink:href="#h" transform="matrix(1,0,0,1,273.8649617382007,449.08010548718323) translate(69.98030864197531 14.222222222222223)"/><path d="M234.64 183.1a8.77 8.77 0 0 1 5.76-8.05l71.15-26a16.4 16.4 0 0 1 11.26.02l70.77 25.97a8.48 8.48 0 0 1 5.56 8.07l-.74 58.9a6.08 6.08 0 0 1-6.08 6h-153a5.88 5.88 0 0 1-5.88-6z" stroke="#3a414a" stroke-width="2" fill="#fff"/><use xlink:href="#e" transform="matrix(1,0,0,1,233.31557895668774,146.99999999999955) translate(54.66666666666667 54.94444444444444)"/><use xlink:href="#i" transform="matrix(1,0,0,1,233.31557895668774,146.99999999999955) translate(97.81481481481481 54.94444444444444)"/><path d="M317.25 316.43h-1.95V300.1h1.95zm0-37.68h-1.95V259.4h1.95z" stroke="#000" stroke-width=".05"/><path d="M317.25 317.4l-1.3.04-.65.07v-1.1h1.95z"/><path stroke="#000" stroke-width=".05"/><path d="M327.12 267.83l-1.7.98-8.17-14.16v4.86h-1.95v-4.86l-8.18 14.17-1.7-.97 10.86-18.78z" stroke="#000" stroke-width=".05"/><use xlink:href="#j" transform="matrix(1,0,0,1,240.325790141269,278.75404226926236) translate(0.0049999999999954525 14.222222222222223)"/><use xlink:href="#k" transform="matrix(1,0,0,1,240.325790141269,278.75404226926236) translate(55.26425925925926 14.222222222222223)"/><path d="M228.97 707.46l2.85.05-.02.96-2.86-.06h-.02l-2.15-.13.06-.95zm-15.44-2.26l2.96.7 3 .57 2.38.35-.13.94-2.4-.36h-.02l-3.03-.58h-.02l-2.97-.7h-.02l-1.4-.4.25-.9zm-14.2-5.3l2.78 1.32 2.82 1.18 2.47.92-.34.9-2.48-.93v-.02h-.02l-2.83-1.2-2.83-1.32h-.02l-1.07-.57.45-.85zm-11.16-6.77l2.8 1.94 2.78 1.77.14.08-.5.82-.13-.08h-.02l-2.8-1.8h-.02l-2.8-1.95h-.02l-2.48-1.9.58-.75zm-11.34-9.84l2.87 2.8 2.18 1.96-.64.7-2.18-1.96h-.02l-2.88-2.84-2.1-2.24.7-.65zm-8.8-10.24l2.97 3.74.45.53-.72.62-.46-.54-3-3.76-2.66-3.68.78-.56zm-9.05-13.7l3.04 5.03.57.85-.8.53-.58-.88-3.06-5.06-1.5-2.72.84-.45zm-6.1-11.7l2.28 4.6-.85.42-2.28-4.6v-.02l-2-4.47.88-.4zm-6-14.3l2.08 5.24-.9.35-2.06-5.25v-.02l-1.45-4.14.9-.3zM141.3 616l2.55 8.5-.9.28-2.57-8.5v-.02l-.3-1.12.93-.23zm-2.55-9.9l1 3.95-.9.24-1.03-4-1.23-5.8.93-.2zm-2.27-10.7l-.94.17-1.67-9.9.94-.14zm-3.5-23.87l1.13 9.05-.95.12-1.15-9.06v-.02l-.07-.9.94-.07zm-1.1-12.82l.6 6.95-.95.08-.57-6.95v-.02l-.13-3.05.95-.03zm-.32-8.04l-.95.04-.1-2.3h.94zm.06-25.02l-.06 1.42h-.95l.05-1.46zm.98-15l-.7 8.33-.07 1.66-.94-.04.07-1.68v-.02l.7-8.33zm1.7-14.9l-1.27 9.94-.93-.12 1.25-9.95zm2.45-14.8l-.24 1.1-1.5 8.75-.92-.17 1.48-8.76.24-1.14zm3.32-14.66l-1.24 4.87-1.03 4.88-.93-.2 1.04-4.9 1.25-4.88zm4.12-14.42l-2.78 9.23-.1.33-.92-.24.1-.36v-.02l2.78-9.24zm5.18-14.1l-2.26 5.7-1.28 3.67-.9-.32 1.28-3.66 2.27-5.73zm6.22-13.64l-2.4 4.8-1.87 4.25-.87-.4 1.9-4.23v-.02l2.4-4.82zm7.44-13l-.52.8-3.1 5.12-1.46 2.67-.83-.45 1.46-2.68 3.1-5.14h.02v-.02l.54-.8zm8.85-12.1l-.26.3-3 3.8-2.8 3.85-.78-.56 2.8-3.84v-.02l3.03-3.8v-.02h.02l.26-.3zm10.4-10.76l-1.84 1.65-2.9 2.86-2.36 2.5-.7-.63 2.38-2.53v-.02l2.93-2.86h.02l1.83-1.67zm11.96-8.95l-2.4 1.54-2.82 1.96-2.83 2.15-.1.08-.6-.73.1-.1 2.86-2.16h.02V382l2.85-1.97 2.43-1.54zm13.43-6.5l-1.76.65-2.83 1.2-2.82 1.32-1.7.88-.43-.84 1.7-.88 2.84-1.34h.02l2.85-1.2h.02l1.78-.67zm9.56-2.8l-2.67.64-2.18.6-.25-.9 2.18-.62h.02l2.67-.63z" stroke="#54c45e" stroke-width=".05" fill="#54c45e"/><path d="M232.32 707.52v.96l-.53-.02v-.95z" fill="#54c45e"/><path stroke="#54c45e" stroke-width=".05" fill="#54c45e"/><path d="M231.74 368l-13.7 6.1-.98-9.2z" fill="#54c45e"/><path d="M233.26 367.84l-15.63 6.97-1.1-10.5zm-14.82 5.57l11.77-5.23-12.6-2.68z" stroke="#54c45e" stroke-width=".05" fill="#54c45e"/><use xlink:href="#l" transform="matrix(1,0,0,1,90.94676238690363,527.0625994128428) translate(0 14.222222222222223)"/><path d="M404.26 708.34l-.4.03h-.02l-4.56.1-.02-.96 4.54-.08.4-.03zm14.85-1.64l-.87.16h-.02l-4.64.7h-.02l-4.3.45-.1-.93 4.3-.46 4.63-.67.87-.17zm14.5-3.6l-1.86.6h-.02l-4.4 1.23h-.02l-3.3.78-.22-.9 3.28-.78 4.4-1.23 1.86-.62zm13.9-5.54l-2.78 1.3h-.02l-4.27 1.8h-.02v.02l-2.08.77-.33-.9 2.07-.76 4.26-1.8 2.76-1.3zm13.03-7.3l-3.04 1.9v.02h-.02l-4.24 2.45-1.3.68-.44-.83 1.28-.67 4.2-2.43 3.04-1.93zm12.03-8.88l-2.26 1.87-4.3 3.26v.02l-1.34.93-.55-.78 1.35-.93 4.25-3.23 2.26-1.85zm11-10.13l-.2.2-4.4 4.3v.02l-2.62 2.36-.64-.7 2.62-2.36 4.36-4.28.18-.2zm9.88-11.2l-1.15 1.47h-.02l-4.48 5.2v.02l-.85.9-.7-.66.84-.9 4.45-5.16 1.15-1.45zm8.9-11.97l-.93 1.4v.02l-4.57 6.3h-.02l-.27.37-.75-.6.28-.34 4.56-6.28.93-1.4zm7.96-12.62l-4.27 7.06-.94 1.42-.8-.53.93-1.38 4.26-7.05zm7.05-13.16l-2 4.02v.02l-2.62 4.77-.83-.45 2.6-4.76 2-4.02zm6.3-13.52L520 616.9v.02l-.46.93-.85-.42.46-.9 3.62-8.14zm5.58-13.85l-.05.12v.02l-3.6 9.1-.9-.34 3.6-9.1.05-.12zm4.83-14.1l-.48 1.58v.02l-2.72 7.82-.9-.32 2.7-7.8.5-1.58zm4.22-14.32l-.52 2.05v.02l-2.27 7.5-.9-.28 2.24-7.5.52-2.02zm3.65-14.45l-.3 1.37v.02l-2.12 8.26-.9-.23 2.1-8.25.3-1.37zm3.1-14.57l-2.07 9.7-.93-.18 2.06-9.72zm2.5-14.7l-1.66 9.8-.94-.17 1.66-9.8zm2-14.8l-1.25 9.87-.94-.12 1.25-9.86zm1.54-14.82l-.65 7.75v.02l-.27 2.15-.94-.12.27-2.13.65-7.74zm1.1-14.87l-.13 3.22v.02l-.55 6.67-.96-.07.56-6.66.13-3.22zm.22-4.97l-.96-.04.4-9.67h.95zm.48-31.75v.72h-.95v-.7l-.34-7.98.94-.04zm-.84-19.84l.3 6.88-.96.04-.28-6.86-.26-3.04.95-.07zm-.67-8l-.94.08-.83-9.9.94-.08zm-1.4-14.85l-.94.1-1.24-9.85.93-.1zm-1.88-14.92V384.1l-.93.13v-.1l-1.65-9.68.94-.15zm-2.95-17.4v.02l.48 2.8-.94.16-.48-2.8-1.47-6.92.93-.2zm-3.44-16.2l.95 4.4-.93.2-.93-4.38-1.36-5.26.92-.23zm-3.83-14.96l1.25 4.88-.9.23-1.26-4.85-1.42-4.7.9-.27zm-4.13-13.7v.02l1.28 4.22-.9.27-1.28-4.2-1.8-5.2.9-.33zm-4.34-12.48v.02l.9 2.55-.9.32-.9-2.54-2.64-6.7.88-.36zm-4.5-11.36l-.86.4-4.04-9.08.87-.4zm-9.16-19.5l2.96 5.94-.85.43-2.94-5.93-1.58-2.9.83-.45zm-4.6-8.4l.62 1.14-.83.46-.62-1.13-4.46-7.38.82-.5zm-9.18-14.5v.02l1.95 2.92-.78.53-1.94-2.9-3.77-5.2.78-.56zm-9.02-11.88h.02l2.17 2.75-.75.6-2.16-2.74-4.2-4.86.72-.62zm-13.18-14.1v.02l4.35 4.25h.02v.02l1.22 1.28-.7.65-1.2-1.3-4.32-4.22-1.55-1.38.64-.7zm-12.85-10.64h.02l4.25 3.22v.02l3.3 2.72-.6.73-3.3-2.7-4.2-3.22-.28-.2.53-.77zm-12.67-8.07h.02l4.2 2.43h.02l4.06 2.6-.5.8-4.06-2.58-4.2-2.42-.22-.12.44-.83zm-12.74-6l4.26 1.8h.02l3.8 1.78-.42.86-3.78-1.78-4.23-1.78-1.05-.4.33-.88zm-13.08-4.25h.02l4.4 1.23 2.9.94-.3.9-2.87-.93-4.38-1.23-2.27-.53.2-.92zm-9.05-1.92h.02l1.87.36-.18.92-1.88-.35-3-.45.13-.94z" stroke="#54c45e" stroke-width=".05" fill="#54c45e"/><path d="M399.3 708.46h-.54v-.94h.5z" fill="#54c45e"/><path stroke="#54c45e" stroke-width=".05" fill="#54c45e"/><path d="M415.47 203.24l-13.9-5.63 14.55-3.6z" fill="#54c45e"/><path d="M415.9 203.93l-15.87-6.42 16.6-4.12zm-12.8-6.2l11.94 4.83.56-7.95z" stroke="#54c45e" stroke-width=".05" fill="#54c45e"/><use xlink:href="#l" transform="matrix(1,0,0,1,512.5000833055778,442.2944844802125) translate(0 14.222222222222223)"/><path d="M767.7 664a6 6 0 0 1 6-6h152.43a6 6 0 0 1 6 6v88a6 6 0 0 1-6 6H773.7a6 6 0 0 1-6-6z" stroke="#5e5e5e" stroke-width="2" fill="#fff"/><use xlink:href="#a" transform="matrix(1,0,0,1,772.6909215425455,663) translate(30.03086419753086 48.71527777777778)"/><path d="M630.24 406.1a8.77 8.77 0 0 1 5.75-8.05l71.14-26a16.4 16.4 0 0 1 11.27.02l70.77 25.97a8.48 8.48 0 0 1 5.56 8.07L794 465a6.08 6.08 0 0 1-6.1 6h-153a5.88 5.88 0 0 1-5.87-6z" stroke="#3a414a" stroke-width="2" fill="#fff"/><use xlink:href="#e" transform="matrix(1,0,0,1,628.9131436338408,369.9999999999998) translate(54.01851851851852 54.94444444444444)"/><use xlink:href="#c" transform="matrix(1,0,0,1,628.9131436338408,369.9999999999998) translate(97.16666666666666 54.94444444444444)"/><path d="M850.9 656h-1.96v-20.2h1.95zm0-41.52h-1.96v-24.93h1.95z" stroke="#000" stroke-width=".05"/><path d="M850.9 657h-1.96v-1.03h1.95z"/><path stroke="#000" stroke-width=".05"/><path d="M860.76 598l-1.7.98-8.17-14.18v4.87h-1.96v-4.87l-8.18 14.18-1.7-.98 10.85-18.78z" stroke="#000" stroke-width=".05"/><use xlink:href="#m" transform="matrix(1,0,0,1,775.4933905923142,614.4766317387667) translate(0.0049999999999954525 14.222222222222223)"/><use xlink:href="#n" transform="matrix(1,0,0,1,775.4933905923142,614.4766317387667) translate(70.96796296296296 14.222222222222223)"/><path d="M630.24 236.1a8.77 8.77 0 0 1 5.75-8.05l71.14-26a16.4 16.4 0 0 1 11.27.02l70.77 25.97a8.48 8.48 0 0 1 5.56 8.07L794 295a6.08 6.08 0 0 1-6.1 6h-153a5.88 5.88 0 0 1-5.87-6z" stroke="#3a414a" stroke-width="2" fill="#fff"/><use xlink:href="#e" transform="matrix(1,0,0,1,628.9131436338408,199.99999999999972) translate(54.01851851851852 54.94444444444444)"/><use xlink:href="#f" transform="matrix(1,0,0,1,628.9131436338408,199.99999999999972) translate(97.16666666666666 54.94444444444444)"/><path d="M714.26 369.06l-1.95.04-.34-16.22h1.95zm-.8-37.5h-1.95l-.4-19.16 1.95-.04z" stroke="#000" stroke-width=".05"/><path d="M714.28 370.14l-.28-.03-1.22-.04-.45.02-.03-1 1.96-.04z"/><path stroke="#000" stroke-width=".05"/><path d="M723.1 320.6l-1.67 1-8.48-13.98.1 4.86-1.94.04-.1-4.86-7.88 14.34-1.7-.94 10.44-19z" stroke="#000" stroke-width=".05"/><use xlink:href="#j" transform="matrix(1,0,0,1,636.7602130448599,331.5498701289908) translate(0.0049999999999954525 14.222222222222223)"/><use xlink:href="#k" transform="matrix(1,0,0,1,636.7602130448599,331.5498701289908) translate(55.26425925925926 14.222222222222223)"/><path d="M938.65 708.33l-.7.04h-.02l-4.28.1-.02-.96 4.26-.08.7-.04zm14.9-1.72l-1.36.27h-.02l-4.73.7h-.02l-3.8.4-.1-.94 3.8-.4 4.7-.7 1.34-.25zm14.55-3.6l-1.56.5h-.02l-4.8 1.34-3.27.77-.22-.9 3.25-.78 4.78-1.33 1.55-.5zm14-5.38l-.77.36h-.02l-4.97 2.1h-.02l-3.46 1.3-.33-.9 3.47-1.28 4.97-2.08.76-.37zm13.3-6.93l-3.8 2.17-4.97 2.6-.44-.84 4.94-2.6 3.77-2.17zm12.5-8.2l-5.55 3.86h-.02l-2.68 1.7-.5-.8 2.66-1.7 5.56-3.85zm11.77-9.37l-.13.12-5.9 4.88-1.73 1.32-.57-.76 1.72-1.3 5.86-4.86.13-.1zm10.92-10.23l-5 4.88-2.23 2.02-.64-.7 2.22-2 4.97-4.88zm10.18-10.98l-2.47 2.86v.02l-4.23 4.5-.7-.64 4.23-4.5 2.46-2.86zm9.5-11.57l-5.34 6.75-.9 1.04-.72-.62.88-1.02 5.34-6.74zm8.86-12.08l-.42.62-5.42 7.47-.77-.56 5.4-7.44.42-.62zm8.18-12.54l-1.5 2.47v.02l-3.92 5.9-.8-.53 3.9-5.9 1.5-2.46zm7.6-12.9l-1.92 3.5v.02l-3.1 5.12-.82-.5 3.1-5.1 1.9-3.5zm7.06-13.2l-1.8 3.63v.02l-2.86 5.2-.83-.47 2.84-5.17 1.8-3.6zm6.54-13.45l-1.23 2.76h-.02v.02l-3.1 6.22-.84-.43 3.08-6.2 1.23-2.76zm6.04-13.7l-.37.95h-.02v.02l-3.64 8.17-.87-.38 3.64-8.17.38-.94zm5.5-13.9l-3.66 9.27-.9-.35 3.68-9.27zm9.54-28.37l-1.7 5.67h-1l1.8-5.93zm4.1-14.38l-1.37 5.35v.02l-1.3 4.24-.9-.27 1.28-4.24 1.38-5.35zm3.66-14.5l-.3 1.4v.02l-2.12 8.25-.92-.24 2.12-8.24.3-1.4zm3.1-14.64l-2.06 9.75-.93-.2 2.07-9.75zm2.6-14.74l-1.65 9.83-.93-.16 1.66-9.82zm2.12-14.8l-1.16 9.2-.12.7-.94-.17.12-.67 1.16-9.2zm1.6-14.9l-.57 6.8v.02l-.4 3.12-.93-.12.4-3.1.56-6.8zm1.03-14.93l-.22 5.38v.02l-.38 4.58-.95-.08.38-4.57.23-5.36zm.43-14.95V407.43l-.2 4.9-.96-.02.2-4.9v-5.05zm0-9.04V397.4h-.95v-4.03l-.25-5.9.95-.05zm-.54-12.9l.07 2-.95.05-.08-2-.66-7.92.95-.08zm-2.35-22.5v.02l1.2 9.55-.93.12-1.2-9.54-.06-.33.94-.16zm-1.63-9.7v.02l.75 4.43-.94.16-.75-4.4-1.13-5.35.93-.2zm-3.9-16.74v.02l1.66 6.5-.92.23-1.67-6.47-.95-3.12.9-.27zm-4.48-13.8v.02l2.05 5.87-.9.3-2.05-5.84-1.37-3.47.88-.35zm-7.27-16.43v.02l2.47 4.98 1.5 3.33-.88.4-1.47-3.32-2.47-4.96-.37-.67.83-.45zm-7.64-12.66v.02l2.57 3.85v.02l2.26 3.7-.8.5-2.25-3.7-2.55-3.85-.58-.8.77-.55zm-7.87-9.95v.02h.02l2.63 3.05h.02l1.63 2.06-.74.6-1.62-2.06-2.62-3.03-2.26-2.4.7-.66zm-10.87-10.23l2.76 2.28 2.24 2.02-.63.7-2.22-2-2.74-2.26-2.7-2.05.6-.77zm-14.58-9.26h.02l3.02 1.58h.02l2.95 1.7v.02l1.7 1.07-.5.82-1.7-1.07-2.92-1.7-3-1.56-1.03-.5.4-.86zm-13-5.14h.02l3.38 1.1h.02l3.28 1.23h.02l.66.3-.36.86-.66-.3-3.26-1.2-3.37-1.1-2.1-.57.26-.92zm-11.02-2.57h.02l3.8.72h.02l.22.06-.22.93-.2-.04-3.8-.73-.86-.13.14-.94z" stroke="#54c45e" stroke-width=".05" fill="#54c45e"/><path d="M933.66 708.46h-.52v-.94h.5z" fill="#54c45e"/><path stroke="#54c45e" stroke-width=".05" fill="#54c45e"/><path d="M1041.3 256.35l-13.86-5.73 14.6-3.5z" fill="#54c45e"/><path d="M1041.73 257.04l-15.82-6.53 16.65-4zm-12.75-6.3l11.9 4.92.62-7.94z" stroke="#54c45e" stroke-width=".05" fill="#54c45e"/><use xlink:href="#o" transform="matrix(1,0,0,1,1029.4147872648487,525.8753406029061) translate(0.0049999999999954525 14.222222222222223)"/><use xlink:href="#p" transform="matrix(1,0,0,1,1029.4147872648487,525.8753406029061) translate(70.96796296296296 14.222222222222223)"/><path d="M831.9 547.33a6 6 0 0 1 6-6h24a6 6 0 0 1 6 6v25.34a6 6 0 0 1-6 6h-24a6 6 0 0 1-6-6z" stroke="#3a414a" fill="#fff"/><path d="M833.08 541.6l-1.4 1.38-18.25-18.37h2.75zm-38.1-38.33h-2.76l-23.08-23.22 1.38-1.37z" stroke="#000" stroke-width=".05"/><path d="M833.8 542.33l-.48.4-.67.78-.16.28-.83-.82 1.4-1.37z"/><path stroke="#000" stroke-width=".05"/><path d="M783.47 477.7l-.5 1.9-15.8-4.3 3.43 3.46-1.38 1.37-3.43-3.44 4.18 15.8-1.9.5-5.54-20.96z" stroke="#000" stroke-width=".05"/><use xlink:href="#q" transform="matrix(1,0,0,1,781.9780266200303,503.2738415924543) translate(0.004999999999999005 14.222222222222223)"/><path d="M920.07 377a6 6 0 0 1 6-6h152.44a6 6 0 0 1 6 6v88a6 6 0 0 1-6 6H926.08a6 6 0 0 1-6-6z" stroke="#5e5e5e" stroke-width="2" fill="#fff"/><use xlink:href="#r" transform="matrix(1,0,0,1,925.0662638665494,375.9999999999998) translate(27.56172839506172 48.71527777777778)"/><path d="M868.86 544.03l-1.3-1.44 19.07-17.4h2.9zm70.5-64.3l-26.46 24.13H910l28.05-25.58z" stroke="#000" stroke-width=".05"/><path d="M868.88 544.02l-.96.88-.2-.52-.55-.87-.27-.3.67-.62z"/><path stroke="#000" stroke-width=".05"/><path d="M939.78 492.7l-1.86-.6 4.95-15.58-3.6 3.28-1.3-1.44 3.6-3.28-16 3.5-.4-1.9 21.17-4.65z" stroke="#000" stroke-width=".05"/><use xlink:href="#s" transform="matrix(1,0,0,1,867.7155547548119,503.8574758833127) translate(0.005000000000002558 14.222222222222223)"/><use xlink:href="#t" transform="matrix(1,0,0,1,867.7155547548119,503.8574758833127) translate(34.57290123456791 14.222222222222223)"/><path d="M-143.68 664.5a6 6 0 0 1 6-6H14.77a6 6 0 0 1 6 6v88a6 6 0 0 1-6 6h-152.45a6 6 0 0 1-6-6z" stroke="#5e5e5e" stroke-width="2" fill="#fff"/><use xlink:href="#a" transform="matrix(1,0,0,1,-138.6788474732171,663.5) translate(30.03086419753086 48.71527777777778)"/><path d="M-143.8 524.27a8.77 8.77 0 0 1 5.76-8.05l71.15-26a16.4 16.4 0 0 1 11.28 0l70.75 26a8.48 8.48 0 0 1 5.56 8.05l-.75 58.9a6.08 6.08 0 0 1-6.07 6h-153a5.88 5.88 0 0 1-5.88-6z" stroke="#3a414a" stroke-width="2" fill="#fff"/><use xlink:href="#b" transform="matrix(1,0,0,1,-145.12329204858835,488.1666666666665) translate(37.35185185185186 54.94444444444444)"/><use xlink:href="#c" transform="matrix(1,0,0,1,-145.12329204858835,488.1666666666665) translate(113.83333333333333 54.94444444444444)"/><path d="M-60.7 656.5h-1.95l-.07-15.9h1.95zm-.15-37.23h-1.95l-.08-18.7 1.95-.02z" stroke="#000" stroke-width=".05"/><path d="M-60.7 657.5h-1.95v-1.02h1.95z"/><path stroke="#000" stroke-width=".05"/><path d="M-51.02 608.96l-1.7.98-8.23-14.14.02 4.86h-1.95l-.02-4.85-8.12 14.2-1.7-.96 10.77-18.82z" stroke="#000" stroke-width=".05"/><use xlink:href="#u" transform="matrix(1,0,0,1,-89.38960009570715,619.2742182012076) translate(0.004999999999999005 14.222222222222223)"/><path d="M-142.36 353.94a8.77 8.77 0 0 1 5.76-8.06l71.15-26a16.4 16.4 0 0 1 11.27.02l70.76 25.98a8.48 8.48 0 0 1 5.56 8.06l-.74 58.9a6.08 6.08 0 0 1-6.08 6h-153a5.88 5.88 0 0 1-5.88-6z" stroke="#3a414a" stroke-width="2" fill="#fff"/><use xlink:href="#e" transform="matrix(1,0,0,1,-143.67884747321702,317.83333333333303) translate(54.01851851851852 54.94444444444444)"/><use xlink:href="#f" transform="matrix(1,0,0,1,-143.67884747321702,317.83333333333303) translate(97.16666666666666 54.94444444444444)"/><path d="M-59.76 487.25h-1.95V470.9h1.94zm0-37.67h-1.95v-19.36h1.94z" stroke="#000" stroke-width=".05"/><path d="M-59.76 488.3l-.28-.03-1.22-.04-.45.02v-1.03h1.94z"/><path stroke="#000" stroke-width=".05"/><path d="M-49.9 438.67l-1.68.97-8.18-14.17v4.86h-1.95v-4.86l-8.2 14.17-1.68-.97 10.85-18.8z" stroke="#000" stroke-width=".05"/><use xlink:href="#v" transform="matrix(1,0,0,1,-131.32699555590165,449.58010548718323) translate(0.0049999999999954525 14.222222222222223)"/><use xlink:href="#w" transform="matrix(1,0,0,1,-131.32699555590165,449.58010548718323) translate(48.400061728395066 14.222222222222223)"/><use xlink:href="#x" transform="matrix(1,0,0,1,-131.32699555590165,449.58010548718323) translate(73.09141975308643 14.222222222222223)"/><use xlink:href="#h" transform="matrix(1,0,0,1,-131.32699555590165,449.58010548718323) translate(126.37537037037038 14.222222222222223)"/><path d="M-148.03 707.96l2.86.05-.02.96-2.86-.06h-.02l-2.14-.13.06-.95zm-15.43-2.26l2.95.7 3 .57 2.4.35-.15.94-2.4-.36h-.02l-3.03-.58h-.02l-2.97-.7-1.42-.4.26-.9zm-14.22-5.3l2.8 1.32 2.8 1.18 2.47.92-.34.9-2.47-.93h-.02v-.02l-2.84-1.2h-.02l-2.8-1.32h-.02l-1.08-.57.44-.85zm-11.14-6.77l2.8 1.94 2.78 1.77.13.08-.48.82-.15-.08h-.02l-2.8-1.8-2.82-1.95h-.02l-2.47-1.9.57-.75zm-11.34-9.84l2.87 2.8 2.18 1.96-.63.7-2.2-1.96-2.9-2.84-2.1-2.24.7-.65zm-8.8-10.24l2.96 3.74.46.53-.72.62-.46-.54-3-3.76-2.67-3.68.78-.56zm-9.06-13.7l3.05 5.03.57.85-.8.53-.57-.88-3.06-5.06-1.5-2.72.83-.45zm-6.1-11.7l2.28 4.6-.85.42-2.27-4.6v-.02l-2-4.47.87-.4zm-6-14.3l2.08 5.24-.88.35-2.08-5.25v-.02l-1.44-4.14.9-.3zm-5.6-17.35l2.56 8.5-.9.28-2.58-8.5v-.02l-.3-1.12.93-.23zm-2.55-9.9l1.02 3.95-.92.24-1.02-4-1.23-5.8.93-.2zm-2.26-10.7l-.94.17-1.67-9.9.93-.14zm-3.52-23.87l1.15 9.05-.95.12-1.14-9.06v-.02l-.07-.9.95-.07zm-1.07-12.82l.58 6.95-.95.08-.57-6.95v-.02l-.13-3.05.95-.03zm-.34-8.04l-.95.04-.1-2.3h.95zm.06-25.02l-.06 1.42h-.95l.06-1.46zm.98-15l-.7 8.33-.07 1.66-.94-.04.07-1.68v-.02l.7-8.33zm1.7-14.9l-1.26 9.94-.95-.12 1.26-9.95zm2.45-14.8l-.23 1.1-1.48 8.75-.94-.17 1.48-8.76.25-1.14zm3.33-14.66l-1.25 4.87-1.02 4.88-.93-.2 1.03-4.9 1.26-4.88zm4.12-14.42l-2.8 9.23-.07.33-.9-.24.07-.36v-.02l2.8-9.24zm5.17-14.1l-2.25 5.7-1.28 3.67-.9-.32 1.28-3.66 2.27-5.73zm6.23-13.64l-2.4 4.8-1.88 4.25-.86-.4 1.88-4.23V429l2.4-4.82zm7.44-13l-.54.8-3.1 5.12-1.46 2.67-.83-.45 1.46-2.68 3.12-5.14v-.02l.55-.8zm8.83-12.1l-.25.3-3 3.8-2.8 3.85-.77-.56 2.8-3.84v-.02l3.03-3.8v-.02l.27-.3zm10.4-10.76l-1.83 1.65-2.9 2.86-2.38 2.5-.7-.63 2.38-2.53h.02v-.02l2.92-2.86 1.85-1.67zm11.96-8.95l-2.4 1.54-2.8 1.96-2.85 2.15-.1.08-.6-.73.1-.1h.02l2.85-2.16.02-.02 2.83-1.97h.02l2.4-1.54zm13.43-6.5l-1.75.65-2.83 1.2-2.82 1.32-1.7.88-.44-.84 1.7-.88h.02l2.83-1.34h.02l2.85-1.2h.02l1.76-.67zm9.57-2.8l-2.67.64-2.17.6-.26-.9 2.2-.62 2.68-.63z" stroke="#54c45e" stroke-width=".05" fill="#54c45e"/><path d="M-144.68 708.02v.96l-.53-.02V708z" fill="#54c45e"/><path stroke="#54c45e" stroke-width=".05" fill="#54c45e"/><path d="M-145.26 368.5l-13.7 6.1-.97-9.2z" fill="#54c45e"/><path d="M-143.73 368.34l-15.63 6.97-1.1-10.5zm-14.83 5.57l11.77-5.23-12.6-2.68z" stroke="#54c45e" stroke-width=".05" fill="#54c45e"/><use xlink:href="#y" transform="matrix(1,0,0,1,-276.220503549174,527.5625994128428) translate(0 14.222222222222223)"/><path d="M-78.26 797.16a6 6 0 0 1 6-6h20.17a6 6 0 0 1 6 6v24.67a6 6 0 0 1-6 6h-20.16a6 6 0 0 1-6-6z" fill="none"/><use xlink:href="#z" transform="matrix(1,0,0,1,-73.26409445226068,796.1566666666669) translate(0 17.944444444444443)"/><path d="M298.73 796.66a6 6 0 0 1 6-6h20.17a6 6 0 0 1 6 6v24.67a6 6 0 0 1-6 6h-20.17a6 6 0 0 1-6-6z" fill="none"/><g><use xlink:href="#A" transform="matrix(1,0,0,1,303.7303319776441,795.6566666666669) translate(0 17.944444444444443)"/></g><path d="M833.83 797.16a6 6 0 0 1 6-6H860a6 6 0 0 1 6 6v24.67a6 6 0 0 1-6 6h-20.17a6 6 0 0 1-6-6z" fill="none"/><g><use xlink:href="#B" transform="matrix(1,0,0,1,838.8278968511875,796.156666666667) translate(0 17.944444444444443)"/></g><path d="M989.33 237.83a6 6 0 0 1 6-6h24a6 6 0 0 1 6 6v25.34a6 6 0 0 1-6 6h-24a6 6 0 0 1-6-6z" fill="#fff"/><path d="M1003.33 231.83h8m4 0h4a6 6 0 0 1 6 6v4.23m0 4.22v8.44m0 4.22v4.23a6 6 0 0 1-6 6h-4m-4 0h-8m-4 0h-4a6 6 0 0 1-6-6v-4.23m0-4.22v-8.44m0-4.22v-4.23a6 6 0 0 1 6-6h4" stroke="#54c45e" fill="none"/><path d="M987.83 251.47h-10.1v-1.94h10.1zm-20.2 0H947.4v-1.94h20.22zm-80.13 0h-.72v-1.94h.72zm-10.83 0h-20.2v-1.94h20.2zm-30.3 0h-20.23v-1.94h20.22zm-30.33 0h-10.1v-1.94h10.1zm121.26 0h-5.36v-1.94h5.36z" stroke="#54c45e" stroke-width=".05" fill="#54c45e"/><path d="M988.83 251.47h-1.03v-1.94h1.03z" fill="#54c45e"/><path stroke="#54c45e" stroke-width=".05" fill="#54c45e"/><path d="M815.35 241.34l-14.17 8.2h4.87v1.94h-4.87l14.17 8.18-.97 1.68-18.78-10.84 18.78-10.84z" stroke="#54c45e" stroke-width=".05" fill="#54c45e"/><g><use xlink:href="#C" transform="matrix(1,0,0,1,887.4982642392863,239.8333332410462) translate(0.004999999999999005 14.222222222222223)"/></g><path d="M1009.47 359.6l-1.95.03-.2-9.88 1.96-.04zm-.38-19.77l-1.96.04-.36-18.47h1.95zm-.78-39.76h-1.95l-.18-9.62 1.94-.04zm-.37-19.54l-1.95.04-.2-9.88 1.96-.05z" stroke="#54c45e" stroke-width=".05" fill="#54c45e"/><path d="M1007.76 270.67l-1.95.04v-1.03h1.94z" fill="#54c45e"/><path stroke="#54c45e" stroke-width=".05" fill="#54c45e"/><path d="M1019.17 350.96l-10.48 19-11.2-18.58 1.66-1 8.45 14-.1-4.86 1.96-.04.1 4.86 7.9-14.32z" stroke="#54c45e" stroke-width=".05" fill="#54c45e"/><g><use xlink:href="#D" transform="matrix(1,0,0,1,975.5029001367553,300.0658142594309) translate(0.005000000000002558 14.222222222222223)"/><use xlink:href="#E" transform="matrix(1,0,0,1,975.5029001367553,300.0658142594309) translate(34.57290123456791 14.222222222222223)"/></g><defs><path fill="#333" d="M233-177c-1 41-23 64-60 70L243 0h-38l-65-103H63V0H30v-248c88 3 205-21 203 71zM63-129c60-2 137 13 137-47 0-61-80-42-137-45v92" id="F"/><path fill="#333" d="M100-194c63 0 86 42 84 106H49c0 40 14 67 53 68 26 1 43-12 49-29l28 8c-11 28-37 45-77 45C44 4 14-33 15-96c1-61 26-98 85-98zm52 81c6-60-76-77-97-28-3 7-6 17-6 28h103" id="G"/><path fill="#333" d="M135-143c-3-34-86-38-87 0 15 53 115 12 119 90S17 21 10-45l28-5c4 36 97 45 98 0-10-56-113-15-118-90-4-57 82-63 122-42 12 7 21 19 24 35" id="H"/><path fill="#333" d="M100-194c62-1 85 37 85 99 1 63-27 99-86 99S16-35 15-95c0-66 28-99 85-99zM99-20c44 1 53-31 53-75 0-43-8-75-51-75s-53 32-53 75 10 74 51 75" id="I"/><path fill="#333" d="M84 4C-5 8 30-112 23-190h32v120c0 31 7 50 39 49 72-2 45-101 50-169h31l1 190h-30c-1-10 1-25-2-33-11 22-28 36-60 37" id="J"/><path fill="#333" d="M114-163C36-179 61-72 57 0H25l-1-190h30c1 12-1 29 2 39 6-27 23-49 58-41v29" id="K"/><path fill="#333" d="M96-169c-40 0-48 33-48 73s9 75 48 75c24 0 41-14 43-38l32 2c-6 37-31 61-74 61-59 0-76-41-82-99-10-93 101-131 147-64 4 7 5 14 7 22l-32 3c-4-21-16-35-41-35" id="L"/><g id="a"><use transform="matrix(0.06172839506172839,0,0,0.06172839506172839,0,0)" xlink:href="#F"/><use transform="matrix(0.06172839506172839,0,0,0.06172839506172839,15.987654320987653,0)" xlink:href="#G"/><use transform="matrix(0.06172839506172839,0,0,0.06172839506172839,28.333333333333332,0)" xlink:href="#H"/><use transform="matrix(0.06172839506172839,0,0,0.06172839506172839,39.44444444444444,0)" xlink:href="#I"/><use transform="matrix(0.06172839506172839,0,0,0.06172839506172839,51.79012345679012,0)" xlink:href="#J"/><use transform="matrix(0.06172839506172839,0,0,0.06172839506172839,64.1358024691358,0)" xlink:href="#K"/><use transform="matrix(0.06172839506172839,0,0,0.06172839506172839,71.48148148148148,0)" xlink:href="#L"/><use transform="matrix(0.06172839506172839,0,0,0.06172839506172839,82.5925925925926,0)" xlink:href="#G"/></g><path fill="#3a414a" d="M30-248c87 1 191-15 191 75 0 78-77 80-158 76V0H30v-248zm33 125c57 0 124 11 124-50 0-59-68-47-124-48v98" id="M"/><path fill="#3a414a" d="M100-194c63 0 86 42 84 106H49c0 40 14 67 53 68 26 1 43-12 49-29l28 8c-11 28-37 45-77 45C44 4 14-33 15-96c1-61 26-98 85-98zm52 81c6-60-76-77-97-28-3 7-6 17-6 28h103" id="N"/><path fill="#3a414a" d="M114-163C36-179 61-72 57 0H25l-1-190h30c1 12-1 29 2 39 6-27 23-49 58-41v29" id="O"/><path fill="#3a414a" d="M135-143c-3-34-86-38-87 0 15 53 115 12 119 90S17 21 10-45l28-5c4 36 97 45 98 0-10-56-113-15-118-90-4-57 82-63 122-42 12 7 21 19 24 35" id="P"/><path fill="#3a414a" d="M100-194c62-1 85 37 85 99 1 63-27 99-86 99S16-35 15-95c0-66 28-99 85-99zM99-20c44 1 53-31 53-75 0-43-8-75-51-75s-53 32-53 75 10 74 51 75" id="Q"/><path fill="#3a414a" d="M117-194c89-4 53 116 60 194h-32v-121c0-31-8-49-39-48C34-167 62-67 57 0H25l-1-190h30c1 10-1 24 2 32 11-22 29-35 61-36" id="R"/><g id="b"><use transform="matrix(0.06172839506172839,0,0,0.06172839506172839,0,0)" xlink:href="#M"/><use transform="matrix(0.06172839506172839,0,0,0.06172839506172839,14.814814814814813,0)" xlink:href="#N"/><use transform="matrix(0.06172839506172839,0,0,0.06172839506172839,27.160493827160494,0)" xlink:href="#O"/><use transform="matrix(0.06172839506172839,0,0,0.06172839506172839,34.50617283950617,0)" xlink:href="#P"/><use transform="matrix(0.06172839506172839,0,0,0.06172839506172839,45.61728395061728,0)" xlink:href="#Q"/><use transform="matrix(0.06172839506172839,0,0,0.06172839506172839,57.962962962962955,0)" xlink:href="#R"/></g><path fill="#3a414a" d="M195 0l-74-108L45 0H8l94-129-87-119h37l69 98 67-98h37l-84 118L233 0h-38" id="S"/><use transform="matrix(0.06172839506172839,0,0,0.06172839506172839,0,0)" xlink:href="#S" id="c"/><path d="M115-194c55 1 70 41 70 98S169 2 115 4C84 4 66-9 55-30l1 105H24l-1-265h31l2 30c10-21 28-34 59-34zm-8 174c40 0 45-34 45-75s-6-73-45-74c-42 0-51 32-51 76 0 43 10 73 51 73" id="T"/><path d="M84 4C-5 8 30-112 23-190h32v120c0 31 7 50 39 49 72-2 45-101 50-169h31l1 190h-30c-1-10 1-25-2-33-11 22-28 36-60 37" id="U"/><path d="M115-194c53 0 69 39 70 98 0 66-23 100-70 100C84 3 66-7 56-30L54 0H23l1-261h32v101c10-23 28-34 59-34zm-8 174c40 0 45-34 45-75 0-40-5-75-45-74-42 0-51 32-51 76 0 43 10 73 51 73" id="V"/><path d="M24 0v-261h32V0H24" id="W"/><path d="M24-231v-30h32v30H24zM24 0v-190h32V0H24" id="X"/><path d="M135-143c-3-34-86-38-87 0 15 53 115 12 119 90S17 21 10-45l28-5c4 36 97 45 98 0-10-56-113-15-118-90-4-57 82-63 122-42 12 7 21 19 24 35" id="Y"/><path d="M106-169C34-169 62-67 57 0H25v-261h32l-1 103c12-21 28-36 61-36 89 0 53 116 60 194h-32v-121c2-32-8-49-39-48" id="Z"/><path d="M100-194c63 0 86 42 84 106H49c0 40 14 67 53 68 26 1 43-12 49-29l28 8c-11 28-37 45-77 45C44 4 14-33 15-96c1-61 26-98 85-98zm52 81c6-60-76-77-97-28-3 7-6 17-6 28h103" id="aa"/><path d="M114-163C36-179 61-72 57 0H25l-1-190h30c1 12-1 29 2 39 6-27 23-49 58-41v29" id="ab"/><g id="d"><use transform="matrix(0.04938271604938272,0,0,0.04938271604938272,0,0)" xlink:href="#T"/><use transform="matrix(0.04938271604938272,0,0,0.04938271604938272,9.876543209876544,0)" xlink:href="#U"/><use transform="matrix(0.04938271604938272,0,0,0.04938271604938272,19.75308641975309,0)" xlink:href="#V"/><use transform="matrix(0.04938271604938272,0,0,0.04938271604938272,29.629629629629633,0)" xlink:href="#W"/><use transform="matrix(0.04938271604938272,0,0,0.04938271604938272,33.53086419753087,0)" xlink:href="#X"/><use transform="matrix(0.04938271604938272,0,0,0.04938271604938272,37.4320987654321,0)" xlink:href="#Y"/><use transform="matrix(0.04938271604938272,0,0,0.04938271604938272,46.32098765432099,0)" xlink:href="#Z"/><use transform="matrix(0.04938271604938272,0,0,0.04938271604938272,56.19753086419754,0)" xlink:href="#aa"/><use transform="matrix(0.04938271604938272,0,0,0.04938271604938272,66.07407407407408,0)" xlink:href="#ab"/></g><path fill="#3a414a" d="M140-251c81 0 123 46 123 126C263-46 219 4 140 4 59 4 17-45 17-125s42-126 123-126zm0 227c63 0 89-41 89-101s-29-99-89-99c-61 0-89 39-89 99S79-25 140-24" id="ac"/><path fill="#3a414a" d="M177-190C167-65 218 103 67 71c-23-6-38-20-44-43l32-5c15 47 100 32 89-28v-30C133-14 115 1 83 1 29 1 15-40 15-95c0-56 16-97 71-98 29-1 48 16 59 35 1-10 0-23 2-32h30zM94-22c36 0 50-32 50-73 0-42-14-75-50-75-39 0-46 34-46 75s6 73 46 73" id="ad"/><g id="e"><use transform="matrix(0.06172839506172839,0,0,0.06172839506172839,0,0)" xlink:href="#ac"/><use transform="matrix(0.06172839506172839,0,0,0.06172839506172839,17.28395061728395,0)" xlink:href="#O"/><use transform="matrix(0.06172839506172839,0,0,0.06172839506172839,24.629629629629626,0)" xlink:href="#ad"/></g><path fill="#3a414a" d="M137-103V0h-34v-103L8-248h37l75 118 75-118h37" id="ae"/><use transform="matrix(0.06172839506172839,0,0,0.06172839506172839,0,0)" xlink:href="#ae" id="f"/><path d="M210-169c-67 3-38 105-44 169h-31v-121c0-29-5-50-35-48C34-165 62-65 56 0H25l-1-190h30c1 10-1 24 2 32 10-44 99-50 107 0 11-21 27-35 58-36 85-2 47 119 55 194h-31v-121c0-29-5-49-35-48" id="af"/><g id="g"><use transform="matrix(0.04938271604938272,0,0,0.04938271604938272,0,0)" xlink:href="#af"/><use transform="matrix(0.04938271604938272,0,0,0.04938271604938272,14.765432098765434,0)" xlink:href="#aa"/><use transform="matrix(0.04938271604938272,0,0,0.04938271604938272,24.641975308641978,0)" xlink:href="#af"/><use transform="matrix(0.04938271604938272,0,0,0.04938271604938272,39.40740740740741,0)" xlink:href="#V"/><use transform="matrix(0.04938271604938272,0,0,0.04938271604938272,49.283950617283956,0)" xlink:href="#aa"/><use transform="matrix(0.04938271604938272,0,0,0.04938271604938272,59.1604938271605,0)" xlink:href="#ab"/></g><path d="M100-194c62-1 85 37 85 99 1 63-27 99-86 99S16-35 15-95c0-66 28-99 85-99zM99-20c44 1 53-31 53-75 0-43-8-75-51-75s-53 32-53 75 10 74 51 75" id="ag"/><path d="M101-234c-31-9-42 10-38 44h38v23H63V0H32v-167H5v-23h27c-7-52 17-82 69-68v24" id="ah"/><g id="h"><use transform="matrix(0.04938271604938272,0,0,0.04938271604938272,0,0)" xlink:href="#ag"/><use transform="matrix(0.04938271604938272,0,0,0.04938271604938272,9.876543209876544,0)" xlink:href="#ah"/></g><path fill="#3a414a" d="M209 0H11v-25l151-195H24v-28h176v25L50-27h159V0" id="ai"/><use transform="matrix(0.06172839506172839,0,0,0.06172839506172839,0,0)" xlink:href="#ai" id="i"/><path d="M141-36C126-15 110 5 73 4 37 3 15-17 15-53c-1-64 63-63 125-63 3-35-9-54-41-54-24 1-41 7-42 31l-33-3c5-37 33-52 76-52 45 0 72 20 72 64v82c-1 20 7 32 28 27v20c-31 9-61-2-59-35zM48-53c0 20 12 33 32 33 41-3 63-29 60-74-43 2-92-5-92 41" id="aj"/><path d="M117-194c89-4 53 116 60 194h-32v-121c0-31-8-49-39-48C34-167 62-67 57 0H25l-1-190h30c1 10-1 24 2 32 11-22 29-35 61-36" id="ak"/><path d="M59-47c-2 24 18 29 38 22v24C64 9 27 4 27-40v-127H5v-23h24l9-43h21v43h35v23H59v120" id="al"/><g id="j"><use transform="matrix(0.04938271604938272,0,0,0.04938271604938272,0,0)" xlink:href="#T"/><use transform="matrix(0.04938271604938272,0,0,0.04938271604938272,9.876543209876544,0)" xlink:href="#aj"/><use transform="matrix(0.04938271604938272,0,0,0.04938271604938272,19.75308641975309,0)" xlink:href="#ab"/><use transform="matrix(0.04938271604938272,0,0,0.04938271604938272,25.629629629629633,0)" xlink:href="#aa"/><use transform="matrix(0.04938271604938272,0,0,0.04938271604938272,35.50617283950618,0)" xlink:href="#ak"/><use transform="matrix(0.04938271604938272,0,0,0.04938271604938272,45.38271604938272,0)" xlink:href="#al"/></g><path d="M177-190C167-65 218 103 67 71c-23-6-38-20-44-43l32-5c15 47 100 32 89-28v-30C133-14 115 1 83 1 29 1 15-40 15-95c0-56 16-97 71-98 29-1 48 16 59 35 1-10 0-23 2-32h30zM94-22c36 0 50-32 50-73 0-42-14-75-50-75-39 0-46 34-46 75s6 73 46 73" id="am"/><path d="M9 0v-24l116-142H16v-24h144v24L44-24h123V0H9" id="an"/><g id="k"><use transform="matrix(0.04938271604938272,0,0,0.04938271604938272,0,0)" xlink:href="#ag"/><use transform="matrix(0.04938271604938272,0,0,0.04938271604938272,9.876543209876544,0)" xlink:href="#ab"/><use transform="matrix(0.04938271604938272,0,0,0.04938271604938272,15.753086419753087,0)" xlink:href="#am"/><use transform="matrix(0.04938271604938272,0,0,0.04938271604938272,25.629629629629633,0)" xlink:href="#aj"/><use transform="matrix(0.04938271604938272,0,0,0.04938271604938272,35.50617283950618,0)" xlink:href="#ak"/><use transform="matrix(0.04938271604938272,0,0,0.04938271604938272,45.38271604938272,0)" xlink:href="#X"/><use transform="matrix(0.04938271604938272,0,0,0.04938271604938272,49.283950617283956,0)" xlink:href="#an"/><use transform="matrix(0.04938271604938272,0,0,0.04938271604938272,58.17283950617284,0)" xlink:href="#aj"/><use transform="matrix(0.04938271604938272,0,0,0.04938271604938272,68.0493827160494,0)" xlink:href="#al"/><use transform="matrix(0.04938271604938272,0,0,0.04938271604938272,72.98765432098767,0)" xlink:href="#X"/><use transform="matrix(0.04938271604938272,0,0,0.04938271604938272,76.88888888888891,0)" xlink:href="#ag"/><use transform="matrix(0.04938271604938272,0,0,0.04938271604938272,86.76543209876546,0)" xlink:href="#ak"/></g><path fill="#54c45e" d="M135-194c53 0 70 44 70 98 0 56-19 98-73 100-31 1-45-17-59-34 3 33 2 69 2 105H25l-1-265h48c2 10 0 23 3 31 11-24 29-35 60-35zM114-30c33 0 39-31 40-66 0-38-9-64-40-64-56 0-55 130 0 130" id="ao"/><path fill="#54c45e" d="M85 4C-2 5 27-109 22-190h50c7 57-23 150 33 157 60-5 35-97 40-157h50l1 190h-47c-2-12 1-28-3-38-12 25-28 42-61 42" id="ap"/><path fill="#54c45e" d="M135-194c52 0 70 43 70 98 0 56-19 99-73 100-30 1-46-15-58-35L72 0H24l1-261h50v104c11-23 29-37 60-37zM114-30c31 0 40-27 40-66 0-37-7-63-39-63s-41 28-41 65c0 36 8 64 40 64" id="aq"/><path fill="#54c45e" d="M25 0v-261h50V0H25" id="ar"/><path fill="#54c45e" d="M25-224v-37h50v37H25zM25 0v-190h50V0H25" id="as"/><path fill="#54c45e" d="M137-138c1-29-70-34-71-4 15 46 118 7 119 86 1 83-164 76-172 9l43-7c4 19 20 25 44 25 33 8 57-30 24-41C81-84 22-81 20-136c-2-80 154-74 161-7" id="at"/><path fill="#54c45e" d="M114-157C55-157 80-60 75 0H25v-261h50l-1 109c12-26 28-41 61-42 86-1 58 113 63 194h-50c-7-57 23-157-34-157" id="au"/><path fill="#54c45e" d="M185-48c-13 30-37 53-82 52C43 2 14-33 14-96s30-98 90-98c62 0 83 45 84 108H66c0 31 8 55 39 56 18 0 30-7 34-22zm-45-69c5-46-57-63-70-21-2 6-4 13-4 21h74" id="av"/><path fill="#54c45e" d="M135-150c-39-12-60 13-60 57V0H25l-1-190h47c2 13-1 29 3 40 6-28 27-53 61-41v41" id="aw"/><g id="l"><use transform="matrix(0.04938271604938272,0,0,0.04938271604938272,0,0)" xlink:href="#ao"/><use transform="matrix(0.04938271604938272,0,0,0.04938271604938272,10.814814814814815,0)" xlink:href="#ap"/><use transform="matrix(0.04938271604938272,0,0,0.04938271604938272,21.62962962962963,0)" xlink:href="#aq"/><use transform="matrix(0.04938271604938272,0,0,0.04938271604938272,32.44444444444444,0)" xlink:href="#ar"/><use transform="matrix(0.04938271604938272,0,0,0.04938271604938272,37.382716049382715,0)" xlink:href="#as"/><use transform="matrix(0.04938271604938272,0,0,0.04938271604938272,42.32098765432099,0)" xlink:href="#at"/><use transform="matrix(0.04938271604938272,0,0,0.04938271604938272,52.19753086419754,0)" xlink:href="#au"/><use transform="matrix(0.04938271604938272,0,0,0.04938271604938272,63.01234567901235,0)" xlink:href="#av"/><use transform="matrix(0.04938271604938272,0,0,0.04938271604938272,72.88888888888889,0)" xlink:href="#aw"/></g><path d="M145-31C134-9 116 4 85 4 32 4 16-35 15-94c0-59 17-99 70-100 32-1 48 14 60 33 0-11-1-24 2-32h30l-1 268h-32zM93-21c41 0 51-33 51-76s-8-73-50-73c-40 0-46 35-46 75s5 74 45 74" id="ax"/><path d="M85-194c31 0 48 13 60 33l-1-100h32l1 261h-30c-2-10 0-23-3-31C134-8 116 4 85 4 32 4 16-35 15-94c0-66 23-100 70-100zm9 24c-40 0-46 34-46 75 0 40 6 74 45 74 42 0 51-32 51-76 0-42-9-74-50-73" id="ay"/><g id="m"><use transform="matrix(0.04938271604938272,0,0,0.04938271604938272,0,0)" xlink:href="#ax"/><use transform="matrix(0.04938271604938272,0,0,0.04938271604938272,9.876543209876544,0)" xlink:href="#U"/><use transform="matrix(0.04938271604938272,0,0,0.04938271604938272,19.75308641975309,0)" xlink:href="#aj"/><use transform="matrix(0.04938271604938272,0,0,0.04938271604938272,29.629629629629633,0)" xlink:href="#W"/><use transform="matrix(0.04938271604938272,0,0,0.04938271604938272,33.53086419753087,0)" xlink:href="#X"/><use transform="matrix(0.04938271604938272,0,0,0.04938271604938272,37.4320987654321,0)" xlink:href="#ah"/><use transform="matrix(0.04938271604938272,0,0,0.04938271604938272,42.370370370370374,0)" xlink:href="#X"/><use transform="matrix(0.04938271604938272,0,0,0.04938271604938272,46.27160493827161,0)" xlink:href="#aa"/><use transform="matrix(0.04938271604938272,0,0,0.04938271604938272,56.14814814814815,0)" xlink:href="#ay"/></g><g id="n"><use transform="matrix(0.04938271604938272,0,0,0.04938271604938272,0,0)" xlink:href="#aj"/><use transform="matrix(0.04938271604938272,0,0,0.04938271604938272,9.876543209876544,0)" xlink:href="#al"/><use transform="matrix(0.04938271604938272,0,0,0.04938271604938272,14.814814814814817,0)" xlink:href="#al"/><use transform="matrix(0.04938271604938272,0,0,0.04938271604938272,19.75308641975309,0)" xlink:href="#ab"/><use transform="matrix(0.04938271604938272,0,0,0.04938271604938272,25.629629629629633,0)" xlink:href="#X"/><use transform="matrix(0.04938271604938272,0,0,0.04938271604938272,29.530864197530867,0)" xlink:href="#V"/><use transform="matrix(0.04938271604938272,0,0,0.04938271604938272,39.40740740740741,0)" xlink:href="#U"/><use transform="matrix(0.04938271604938272,0,0,0.04938271604938272,49.283950617283956,0)" xlink:href="#al"/><use transform="matrix(0.04938271604938272,0,0,0.04938271604938272,54.22222222222223,0)" xlink:href="#X"/><use transform="matrix(0.04938271604938272,0,0,0.04938271604938272,58.12345679012346,0)" xlink:href="#ag"/><use transform="matrix(0.04938271604938272,0,0,0.04938271604938272,68,0)" xlink:href="#ak"/></g><path fill="#54c45e" d="M145-31C134-9 116 4 85 4 32 4 16-35 15-94c0-59 17-99 70-100 32-1 48 14 60 33 0-11-1-24 2-32h30l-1 268h-32zM93-21c41 0 51-33 51-76s-8-73-50-73c-40 0-46 35-46 75s5 74 45 74" id="az"/><path fill="#54c45e" d="M84 4C-5 8 30-112 23-190h32v120c0 31 7 50 39 49 72-2 45-101 50-169h31l1 190h-30c-1-10 1-25-2-33-11 22-28 36-60 37" id="aA"/><path fill="#54c45e" d="M141-36C126-15 110 5 73 4 37 3 15-17 15-53c-1-64 63-63 125-63 3-35-9-54-41-54-24 1-41 7-42 31l-33-3c5-37 33-52 76-52 45 0 72 20 72 64v82c-1 20 7 32 28 27v20c-31 9-61-2-59-35zM48-53c0 20 12 33 32 33 41-3 63-29 60-74-43 2-92-5-92 41" id="aB"/><path fill="#54c45e" d="M24 0v-261h32V0H24" id="aC"/><path fill="#54c45e" d="M24-231v-30h32v30H24zM24 0v-190h32V0H24" id="aD"/><path fill="#54c45e" d="M101-234c-31-9-42 10-38 44h38v23H63V0H32v-167H5v-23h27c-7-52 17-82 69-68v24" id="aE"/><path fill="#54c45e" d="M100-194c63 0 86 42 84 106H49c0 40 14 67 53 68 26 1 43-12 49-29l28 8c-11 28-37 45-77 45C44 4 14-33 15-96c1-61 26-98 85-98zm52 81c6-60-76-77-97-28-3 7-6 17-6 28h103" id="aF"/><path fill="#54c45e" d="M85-194c31 0 48 13 60 33l-1-100h32l1 261h-30c-2-10 0-23-3-31C134-8 116 4 85 4 32 4 16-35 15-94c0-66 23-100 70-100zm9 24c-40 0-46 34-46 75 0 40 6 74 45 74 42 0 51-32 51-76 0-42-9-74-50-73" id="aG"/><g id="o"><use transform="matrix(0.04938271604938272,0,0,0.04938271604938272,0,0)" xlink:href="#az"/><use transform="matrix(0.04938271604938272,0,0,0.04938271604938272,9.876543209876544,0)" xlink:href="#aA"/><use transform="matrix(0.04938271604938272,0,0,0.04938271604938272,19.75308641975309,0)" xlink:href="#aB"/><use transform="matrix(0.04938271604938272,0,0,0.04938271604938272,29.629629629629633,0)" xlink:href="#aC"/><use transform="matrix(0.04938271604938272,0,0,0.04938271604938272,33.53086419753087,0)" xlink:href="#aD"/><use transform="matrix(0.04938271604938272,0,0,0.04938271604938272,37.4320987654321,0)" xlink:href="#aE"/><use transform="matrix(0.04938271604938272,0,0,0.04938271604938272,42.370370370370374,0)" xlink:href="#aD"/><use transform="matrix(0.04938271604938272,0,0,0.04938271604938272,46.27160493827161,0)" xlink:href="#aF"/><use transform="matrix(0.04938271604938272,0,0,0.04938271604938272,56.14814814814815,0)" xlink:href="#aG"/></g><path fill="#54c45e" d="M59-47c-2 24 18 29 38 22v24C64 9 27 4 27-40v-127H5v-23h24l9-43h21v43h35v23H59v120" id="aH"/><path fill="#54c45e" d="M114-163C36-179 61-72 57 0H25l-1-190h30c1 12-1 29 2 39 6-27 23-49 58-41v29" id="aI"/><path fill="#54c45e" d="M115-194c53 0 69 39 70 98 0 66-23 100-70 100C84 3 66-7 56-30L54 0H23l1-261h32v101c10-23 28-34 59-34zm-8 174c40 0 45-34 45-75 0-40-5-75-45-74-42 0-51 32-51 76 0 43 10 73 51 73" id="aJ"/><path fill="#54c45e" d="M100-194c62-1 85 37 85 99 1 63-27 99-86 99S16-35 15-95c0-66 28-99 85-99zM99-20c44 1 53-31 53-75 0-43-8-75-51-75s-53 32-53 75 10 74 51 75" id="aK"/><path fill="#54c45e" d="M117-194c89-4 53 116 60 194h-32v-121c0-31-8-49-39-48C34-167 62-67 57 0H25l-1-190h30c1 10-1 24 2 32 11-22 29-35 61-36" id="aL"/><g id="p"><use transform="matrix(0.04938271604938272,0,0,0.04938271604938272,0,0)" xlink:href="#aB"/><use transform="matrix(0.04938271604938272,0,0,0.04938271604938272,9.876543209876544,0)" xlink:href="#aH"/><use transform="matrix(0.04938271604938272,0,0,0.04938271604938272,14.814814814814817,0)" xlink:href="#aH"/><use transform="matrix(0.04938271604938272,0,0,0.04938271604938272,19.75308641975309,0)" xlink:href="#aI"/><use transform="matrix(0.04938271604938272,0,0,0.04938271604938272,25.629629629629633,0)" xlink:href="#aD"/><use transform="matrix(0.04938271604938272,0,0,0.04938271604938272,29.530864197530867,0)" xlink:href="#aJ"/><use transform="matrix(0.04938271604938272,0,0,0.04938271604938272,39.40740740740741,0)" xlink:href="#aA"/><use transform="matrix(0.04938271604938272,0,0,0.04938271604938272,49.283950617283956,0)" xlink:href="#aH"/><use transform="matrix(0.04938271604938272,0,0,0.04938271604938272,54.22222222222223,0)" xlink:href="#aD"/><use transform="matrix(0.04938271604938272,0,0,0.04938271604938272,58.12345679012346,0)" xlink:href="#aK"/><use transform="matrix(0.04938271604938272,0,0,0.04938271604938272,68,0)" xlink:href="#aL"/></g><g id="q"><use transform="matrix(0.04938271604938272,0,0,0.04938271604938272,0,0)" xlink:href="#aj"/><use transform="matrix(0.04938271604938272,0,0,0.04938271604938272,9.876543209876544,0)" xlink:href="#am"/><use transform="matrix(0.04938271604938272,0,0,0.04938271604938272,19.75308641975309,0)" xlink:href="#aa"/><use transform="matrix(0.04938271604938272,0,0,0.04938271604938272,29.629629629629633,0)" xlink:href="#ak"/><use transform="matrix(0.04938271604938272,0,0,0.04938271604938272,39.50617283950618,0)" xlink:href="#al"/></g><path fill="#333" d="M212-179c-10-28-35-45-73-45-59 0-87 40-87 99 0 60 29 101 89 101 43 0 62-24 78-52l27 14C228-24 195 4 139 4 59 4 22-46 18-125c-6-104 99-153 187-111 19 9 31 26 39 46" id="aM"/><path fill="#333" d="M59-47c-2 24 18 29 38 22v24C64 9 27 4 27-40v-127H5v-23h24l9-43h21v43h35v23H59v120" id="aN"/><path fill="#333" d="M85-194c31 0 48 13 60 33l-1-100h32l1 261h-30c-2-10 0-23-3-31C134-8 116 4 85 4 32 4 16-35 15-94c0-66 23-100 70-100zm9 24c-40 0-46 34-46 75 0 40 6 74 45 74 42 0 51-32 51-76 0-42-9-74-50-73" id="aO"/><path fill="#333" d="M24-231v-30h32v30H24zM24 0v-190h32V0H24" id="aP"/><path fill="#333" d="M141-36C126-15 110 5 73 4 37 3 15-17 15-53c-1-64 63-63 125-63 3-35-9-54-41-54-24 1-41 7-42 31l-33-3c5-37 33-52 76-52 45 0 72 20 72 64v82c-1 20 7 32 28 27v20c-31 9-61-2-59-35zM48-53c0 20 12 33 32 33 41-3 63-29 60-74-43 2-92-5-92 41" id="aQ"/><path fill="#333" d="M117-194c89-4 53 116 60 194h-32v-121c0-31-8-49-39-48C34-167 62-67 57 0H25l-1-190h30c1 10-1 24 2 32 11-22 29-35 61-36" id="aR"/><g id="r"><use transform="matrix(0.06172839506172839,0,0,0.06172839506172839,0,0)" xlink:href="#aM"/><use transform="matrix(0.06172839506172839,0,0,0.06172839506172839,15.987654320987653,0)" xlink:href="#J"/><use transform="matrix(0.06172839506172839,0,0,0.06172839506172839,28.333333333333332,0)" xlink:href="#H"/><use transform="matrix(0.06172839506172839,0,0,0.06172839506172839,39.44444444444444,0)" xlink:href="#aN"/><use transform="matrix(0.06172839506172839,0,0,0.06172839506172839,45.617283950617285,0)" xlink:href="#I"/><use transform="matrix(0.06172839506172839,0,0,0.06172839506172839,57.96296296296296,0)" xlink:href="#aO"/><use transform="matrix(0.06172839506172839,0,0,0.06172839506172839,70.30864197530865,0)" xlink:href="#aP"/><use transform="matrix(0.06172839506172839,0,0,0.06172839506172839,75.18518518518519,0)" xlink:href="#aQ"/><use transform="matrix(0.06172839506172839,0,0,0.06172839506172839,87.53086419753087,0)" xlink:href="#aR"/></g><g id="s"><use transform="matrix(0.04938271604938272,0,0,0.04938271604938272,0,0)" xlink:href="#Z"/><use transform="matrix(0.04938271604938272,0,0,0.04938271604938272,9.876543209876544,0)" xlink:href="#aj"/><use transform="matrix(0.04938271604938272,0,0,0.04938271604938272,19.75308641975309,0)" xlink:href="#ay"/></g><g id="t"><use transform="matrix(0.04938271604938272,0,0,0.04938271604938272,0,0)" xlink:href="#ab"/><use transform="matrix(0.04938271604938272,0,0,0.04938271604938272,5.8765432098765435,0)" xlink:href="#ag"/><use transform="matrix(0.04938271604938272,0,0,0.04938271604938272,15.753086419753087,0)" xlink:href="#W"/><use transform="matrix(0.04938271604938272,0,0,0.04938271604938272,19.654320987654323,0)" xlink:href="#aa"/></g><path d="M96-169c-40 0-48 33-48 73s9 75 48 75c24 0 41-14 43-38l32 2c-6 37-31 61-74 61-59 0-76-41-82-99-10-93 101-131 147-64 4 7 5 14 7 22l-32 3c-4-21-16-35-41-35" id="aS"/><g id="u"><use transform="matrix(0.04938271604938272,0,0,0.04938271604938272,0,0)" xlink:href="#aS"/><use transform="matrix(0.04938271604938272,0,0,0.04938271604938272,8.88888888888889,0)" xlink:href="#ab"/><use transform="matrix(0.04938271604938272,0,0,0.04938271604938272,14.765432098765434,0)" xlink:href="#aa"/><use transform="matrix(0.04938271604938272,0,0,0.04938271604938272,24.641975308641978,0)" xlink:href="#aj"/><use transform="matrix(0.04938271604938272,0,0,0.04938271604938272,34.51851851851852,0)" xlink:href="#al"/><use transform="matrix(0.04938271604938272,0,0,0.04938271604938272,39.45679012345679,0)" xlink:href="#ag"/><use transform="matrix(0.04938271604938272,0,0,0.04938271604938272,49.333333333333336,0)" xlink:href="#ab"/></g><g id="v"><use transform="matrix(0.04938271604938272,0,0,0.04938271604938272,0,0)" xlink:href="#aj"/><use transform="matrix(0.04938271604938272,0,0,0.04938271604938272,9.876543209876544,0)" xlink:href="#aS"/><use transform="matrix(0.04938271604938272,0,0,0.04938271604938272,18.765432098765434,0)" xlink:href="#al"/><use transform="matrix(0.04938271604938272,0,0,0.04938271604938272,23.703703703703706,0)" xlink:href="#aa"/><use transform="matrix(0.04938271604938272,0,0,0.04938271604938272,33.580246913580254,0)" xlink:href="#ay"/></g><g id="w"><use transform="matrix(0.04938271604938272,0,0,0.04938271604938272,0,0)" xlink:href="#ag"/><use transform="matrix(0.04938271604938272,0,0,0.04938271604938272,9.876543209876544,0)" xlink:href="#ak"/></g><g id="x"><use transform="matrix(0.04938271604938272,0,0,0.04938271604938272,0,0)" xlink:href="#V"/><use transform="matrix(0.04938271604938272,0,0,0.04938271604938272,9.876543209876544,0)" xlink:href="#aa"/><use transform="matrix(0.04938271604938272,0,0,0.04938271604938272,19.75308641975309,0)" xlink:href="#Z"/><use transform="matrix(0.04938271604938272,0,0,0.04938271604938272,29.629629629629633,0)" xlink:href="#aj"/><use transform="matrix(0.04938271604938272,0,0,0.04938271604938272,39.50617283950618,0)" xlink:href="#W"/><use transform="matrix(0.04938271604938272,0,0,0.04938271604938272,43.40740740740741,0)" xlink:href="#ah"/></g><path fill="#54c45e" d="M190-63c-7 42-38 67-86 67-59 0-84-38-90-98-12-110 154-137 174-36l-49 2c-2-19-15-32-35-32-30 0-35 28-38 64-6 74 65 87 74 30" id="aT"/><path fill="#54c45e" d="M133-34C117-15 103 5 69 4 32 3 11-16 11-54c-1-60 55-63 116-61 1-26-3-47-28-47-18 1-26 9-28 27l-52-2c7-38 36-58 82-57s74 22 75 68l1 82c-1 14 12 18 25 15v27c-30 8-71 5-69-32zm-48 3c29 0 43-24 42-57-32 0-66-3-65 30 0 17 8 27 23 27" id="aU"/><path fill="#54c45e" d="M115-3C79 11 28 4 28-45v-112H4v-33h27l15-45h31v45h36v33H77v99c-1 23 16 31 38 25v30" id="aV"/><path fill="#54c45e" d="M110-194c64 0 96 36 96 99 0 64-35 99-97 99-61 0-95-36-95-99 0-62 34-99 96-99zm-1 164c35 0 45-28 45-65 0-40-10-65-43-65-34 0-45 26-45 65 0 36 10 65 43 65" id="aW"/><g id="y"><use transform="matrix(0.04938271604938272,0,0,0.04938271604938272,0,0)" xlink:href="#aT"/><use transform="matrix(0.04938271604938272,0,0,0.04938271604938272,9.876543209876544,0)" xlink:href="#aw"/><use transform="matrix(0.04938271604938272,0,0,0.04938271604938272,16.790123456790127,0)" xlink:href="#av"/><use transform="matrix(0.04938271604938272,0,0,0.04938271604938272,26.666666666666668,0)" xlink:href="#aU"/><use transform="matrix(0.04938271604938272,0,0,0.04938271604938272,36.543209876543216,0)" xlink:href="#aV"/><use transform="matrix(0.04938271604938272,0,0,0.04938271604938272,42.41975308641976,0)" xlink:href="#aW"/><use transform="matrix(0.04938271604938272,0,0,0.04938271604938272,53.23456790123457,0)" xlink:href="#aw"/></g><path fill="#3a414a" d="M199 0l-22-63H83L61 0H9l90-248h61L250 0h-51zm-33-102l-36-108c-10 38-24 72-36 108h72" id="aX"/><path fill="#3a414a" d="M24 0v-54h51V0H24" id="aY"/><g id="z"><use transform="matrix(0.06172839506172839,0,0,0.06172839506172839,0,0)" xlink:href="#aX"/><use transform="matrix(0.06172839506172839,0,0,0.06172839506172839,15.987654320987653,0)" xlink:href="#aY"/></g><path fill="#3a414a" d="M182-130c37 4 62 22 62 59C244 23 116-4 24 0v-248c84 5 203-23 205 63 0 31-19 50-47 55zM76-148c40-3 101 13 101-30 0-44-60-28-101-31v61zm0 110c48-3 116 14 116-37 0-48-69-32-116-35v72" id="aZ"/><g id="A"><use transform="matrix(0.06172839506172839,0,0,0.06172839506172839,0,0)" xlink:href="#aZ"/><use transform="matrix(0.06172839506172839,0,0,0.06172839506172839,15.987654320987653,0)" xlink:href="#aY"/></g><path fill="#3a414a" d="M67-125c0 53 21 87 73 88 37 1 54-22 65-47l45 17C233-25 199 4 140 4 58 4 20-42 15-125 8-235 124-281 211-232c18 10 29 29 36 50l-46 12c-8-25-30-41-62-41-52 0-71 34-72 86" id="ba"/><g id="B"><use transform="matrix(0.06172839506172839,0,0,0.06172839506172839,0,0)" xlink:href="#ba"/><use transform="matrix(0.06172839506172839,0,0,0.06172839506172839,15.987654320987653,0)" xlink:href="#aY"/></g><path fill="#54c45e" d="M177-190C167-65 218 103 67 71c-23-6-38-20-44-43l32-5c15 47 100 32 89-28v-30C133-14 115 1 83 1 29 1 15-40 15-95c0-56 16-97 71-98 29-1 48 16 59 35 1-10 0-23 2-32h30zM94-22c36 0 50-32 50-73 0-42-14-75-50-75-39 0-46 34-46 75s6 73 46 73" id="bb"/><g id="C"><use transform="matrix(0.04938271604938272,0,0,0.04938271604938272,0,0)" xlink:href="#aB"/><use transform="matrix(0.04938271604938272,0,0,0.04938271604938272,9.876543209876544,0)" xlink:href="#bb"/><use transform="matrix(0.04938271604938272,0,0,0.04938271604938272,19.75308641975309,0)" xlink:href="#aF"/><use transform="matrix(0.04938271604938272,0,0,0.04938271604938272,29.629629629629633,0)" xlink:href="#aL"/><use transform="matrix(0.04938271604938272,0,0,0.04938271604938272,39.50617283950618,0)" xlink:href="#aH"/></g><path fill="#54c45e" d="M106-169C34-169 62-67 57 0H25v-261h32l-1 103c12-21 28-36 61-36 89 0 53 116 60 194h-32v-121c2-32-8-49-39-48" id="bc"/><g id="D"><use transform="matrix(0.04938271604938272,0,0,0.04938271604938272,0,0)" xlink:href="#bc"/><use transform="matrix(0.04938271604938272,0,0,0.04938271604938272,9.876543209876544,0)" xlink:href="#aB"/><use transform="matrix(0.04938271604938272,0,0,0.04938271604938272,19.75308641975309,0)" xlink:href="#aG"/></g><g id="E"><use transform="matrix(0.04938271604938272,0,0,0.04938271604938272,0,0)" xlink:href="#aI"/><use transform="matrix(0.04938271604938272,0,0,0.04938271604938272,5.8765432098765435,0)" xlink:href="#aK"/><use transform="matrix(0.04938271604938272,0,0,0.04938271604938272,15.753086419753087,0)" xlink:href="#aC"/><use transform="matrix(0.04938271604938272,0,0,0.04938271604938272,19.654320987654323,0)" xlink:href="#aF"/></g></defs></g></svg>