<svg xmlns="http://www.w3.org/2000/svg" xmlns:lucid="lucid" width="359.93" height="163.17"><g lucid:page-tab-id="0_0"><path d="M-359-203.76H641v500H-359z" fill="#fff"/><path d="M212.93 88.82c0 28.72-23.3 52-52 52-28.72 0-52-23.28-52-52s23.28-52 52-52c28.7 0 52 23.28 52 52z" stroke="#000" stroke-width="10" fill="#fff"/><path d="M123.64 138.3l-.46.52-1.87 1.96-1.9 1.83-1.9 1.7-1.97 1.6-1.98 1.48-2.02 1.38-2.05 1.27-2.08 1.18-2.13 1.1-2.17 1-2.2.9-2.27.83-2.3.73-2.37.64-2.4.54-2.48.45-2.53.34-2.6.25-2.65.14-2.7.03-2.78-.08-2.83-.2-2.9-.34-2.92-.46-2.98-.6-3.02-.72-3.04-.88-3.05-1.02-3.07-1.17-3.05-1.3-3.02-1.45-3-1.6-2.9-1.72-2.86-1.84-2.77-1.97-2.67-2.06-2.56-2.15-2.44-2.24-2.3-2.3-2.2-2.36-2.04-2.4-1.9-2.45-1.77-2.47-1.63-2.5-1.5-2.5-1.35-2.54-1.23-2.53-1.1-2.54-1-2.54-.85-2.54-.75-2.55-.63-2.54L6 99.1l-.4-2.56-.3-2.56-.2-2.56-.1-2.57v-.6l.05-2.6.15-2.55.26-2.54.37-2.54.47-2.52.58-2.5.7-2.52.8-2.5.92-2.5 1.04-2.5 1.16-2.47 1.28-2.46 1.4-2.46 1.55-2.44 1.68-2.42 1.8-2.4L21.16 46l2.07-2.32 2.2-2.25 2.33-2.2 2.44-2.12 2.55-2.04 2.67-1.94 2.76-1.85 2.84-1.73 2.9-1.6 2.96-1.5 3-1.33 3.03-1.22 3.04-1.07 3.04-.9 3.02-.8 3-.64 2.95-.5 2.93-.4 2.88-.24 2.82-.12h2.78l2.72.1 2.66.2 2.6.33 2.56.43 2.5.52 2.43.62 2.4.7 1.38.5" stroke="#54c45e" stroke-width="10" stroke-linejoin="round" fill="none"/><path d="M125.4 133.42l4.47 3.2 1.1.65-3.47 4.3-7.74-6.24 3.24-4.03z" stroke="#54c45e" stroke-width=".05" fill="#54c45e"/><path d="M113.78 33.66L99.52 29l5.47-7.5z" stroke="#54c45e" stroke-width="10" fill="#54c45e"/><path d="M306.94 20.9c0 8.8-7.22 15.92-16.13 15.92-8.9 0-16.12-7.12-16.12-15.9C274.68 12.1 281.9 5 290.8 5c8.92 0 16.14 7.12 16.14 15.9z" stroke="#e81313" stroke-width="10" fill="#fff"/><path d="M203.9 45.26l.2-.75 1.4-4.2 1.38-3.27 1.34-2.64 1.34-2.2 1.32-1.85 1.33-1.6 1.36-1.37 1.4-1.23 1.43-1.1 1.52-1 1.65-.9 1.8-.8 2.03-.75 2.34-.66 2.8-.57 3.6-.46 2.08-.1" stroke="#e81313" stroke-width="10" stroke-linejoin="round" fill="none"/><path d="M208.76 46.36l-2 7.88-.75-.2-1.66-2.16-3.77-4.02-2-1.76.55-2.18z" stroke="#e81313" stroke-width=".05" fill="#e81313"/><path d="M253.47 20.4l-14.4 4.2.28-9.27z" stroke="#e81313" stroke-width="10" fill="#e81313"/><path d="M320.53 134.07c0 8.78-7.22 15.9-16.13 15.9-8.9 0-16.13-7.12-16.13-15.9 0-8.8 7.22-15.9 16.13-15.9 8.9 0 16.13 7.1 16.13 15.9z" stroke="#e81313" stroke-width="10" fill="#fff"/><path d="M316.95 21.38l.9.18 1.15.28 1.15.34 1.14.4 1.15.45 1.16.52 1.18.58 1.18.67 1.2.74 1.23.83 1.23.93 1.28 1.04 1.3 1.16 1.34 1.3 1.36 1.45 1.4 1.63 1.42 1.82 1.46 2.04 1.48 2.27 1.5 2.56 1.5 2.83 1.5 3.14L346.6 52l1.42 3.8 1.32 4.08 1.2 4.36 1.02 4.57.85 4.7.65 4.73.43 4.66.2 4.5.02 4.3-.17 4-.32 3.7-.43 3.38-.54 3.07-.62 2.8-.67 2.5-.45 1.42" stroke="#e81313" stroke-width="10" stroke-linejoin="round" fill="none"/><path d="M317.22 16.05L317 26l-5.67-.13.65-4.96-.65-4.98z" stroke="#e81313" stroke-width=".05" fill="#e81313"/><path d="M337.82 123.5l7.77-12.83 6.05 7.02z" stroke="#e81313" stroke-width="10" fill="#e81313"/><path d="M285.1 151.48l-.1.07-1.98 1.1-1.9.9-1.86.75-1.83.6-1.8.5-1.83.36-1.83.25-1.88.16-1.94.03-2-.1-2.14-.23-2.26-.38-2.45-.58-2.7-.8-3.04-1.12-3.52-1.54-4.25-2.17-5.5-3.27-4.52-3.07" stroke="#e81313" stroke-width="10" stroke-linejoin="round" fill="none"/><path d="M289.35 148.8l3.97 3.05-5.3 3.85-5.85-8.06 4.04-2.93z" stroke="#e81313" stroke-width=".05" fill="#e81313"/><path d="M220.33 131.46l14.2 4.8-5.52 7.44z" stroke="#e81313" stroke-width="10" fill="#e81313"/></g></svg>